PathFileType	4	(X/Y/Z)	C:\Users\italobelli\Desktop\GitHub\PTbot_officialCBL\Personal_Results\SHRUG02_noisy1.trc
DataRate	CameraRate	NumFrames	NumMarkers	Units	OrigDataRate	OrigDataStartFrame	OrigNumFrames
112.250000	112.250000	38	9	m	112.250000	1	450
Frame#	Time		gu		centelbow		EpL		centpxt8		centijc7		ij		ts		aa		ai
			X1	Y1	Z1	X2	Y2	Z2	X3	Y3	Z3	X4	Y4	Z4	X5	Y5	Z5	X6	Y6	Z6	X7	Y7	Z7	X8	Y8	Z8	X9	Y9	Z9

1	0	-0.076267	-0.013602	0.16555	-0.10713	-0.25463	0.20319	-0.085342	-0.24978	0.22645	-0.046816	-0.15316	-0.008669	-0.046816	0.031938	-0.008669	0	0	0	-0.13839	0.028959	0.057016	-0.10448	0.024681	0.17128	-0.15951	-0.082316	0.064559
2	0.0089087	-0.076277	-0.013672	0.16555	-0.1071	-0.25466	0.20314	-0.085305	-0.24981	0.2264	-0.046816	-0.15316	-0.008669	-0.046816	0.031938	-0.008669	0	0	0	-0.13844	0.028829	0.057019	-0.10452	0.024537	0.17128	-0.15954	-0.082453	0.064543
3	0.017817	-0.076288	-0.013738	0.16556	-0.10706	-0.25469	0.20309	-0.085272	-0.24985	0.22634	-0.046816	-0.15316	-0.008669	-0.046816	0.031938	-0.008669	0	0	0	-0.1385	0.028702	0.057021	-0.10456	0.024398	0.17128	-0.15956	-0.082588	0.064528
4	0.026726	-0.0763	-0.0138	0.16556	-0.10704	-0.25472	0.20303	-0.085243	-0.24987	0.22629	-0.046816	-0.15316	-0.008669	-0.046816	0.031938	-0.008669	0	0	0	-0.13855	0.028579	0.057023	-0.1046	0.024265	0.17128	-0.15959	-0.082719	0.064514
5	0.035635	-0.076313	-0.013857	0.16556	-0.10701	-0.25475	0.20299	-0.085218	-0.2499	0.22624	-0.046816	-0.15316	-0.008669	-0.046816	0.031938	-0.008669	0	0	0	-0.1386	0.028458	0.057024	-0.10463	0.024137	0.17127	-0.15961	-0.082848	0.0645
6	0.044543	-0.076326	-0.01391	0.16557	-0.10699	-0.25477	0.20294	-0.085197	-0.24992	0.22619	-0.046816	-0.15316	-0.008669	-0.046816	0.031938	-0.008669	0	0	0	-0.13865	0.028341	0.057025	-0.10467	0.024014	0.17127	-0.15963	-0.082974	0.064487
7	0.053452	-0.07634	-0.013958	0.16557	-0.10698	-0.25478	0.20289	-0.08518	-0.24994	0.22615	-0.046816	-0.15316	-0.008669	-0.046816	0.031938	-0.008669	0	0	0	-0.1387	0.028227	0.057025	-0.10471	0.023896	0.17127	-0.15966	-0.083096	0.064475
8	0.062361	-0.076354	-0.014003	0.16557	-0.10696	-0.2548	0.20285	-0.085166	-0.24995	0.2261	-0.046816	-0.15316	-0.008669	-0.046816	0.031938	-0.008669	0	0	0	-0.13875	0.028117	0.057025	-0.10474	0.023783	0.17127	-0.15968	-0.083215	0.064463
9	0.071269	-0.07637	-0.014043	0.16558	-0.10695	-0.25481	0.2028	-0.085155	-0.24996	0.22606	-0.046816	-0.15316	-0.008669	-0.046816	0.031938	-0.008669	0	0	0	-0.13879	0.02801	0.057024	-0.10477	0.023676	0.17126	-0.1597	-0.08333	0.064451
10	0.080178	-0.076386	-0.01408	0.16558	-0.10695	-0.25482	0.20276	-0.085149	-0.24997	0.22601	-0.046816	-0.15316	-0.008669	-0.046816	0.031938	-0.008669	0	0	0	-0.13884	0.027907	0.057023	-0.10481	0.023574	0.17126	-0.15972	-0.083442	0.064441
11	0.089087	-0.076402	-0.014113	0.16559	-0.10694	-0.25482	0.20272	-0.085145	-0.24998	0.22597	-0.046816	-0.15316	-0.008669	-0.046816	0.031938	-0.008669	0	0	0	-0.13888	0.027807	0.057021	-0.10484	0.023477	0.17126	-0.15974	-0.08355	0.06443
12	0.097996	-0.076419	-0.014141	0.16559	-0.10694	-0.25483	0.20268	-0.085145	-0.24998	0.22593	-0.046816	-0.15316	-0.008669	-0.046816	0.031938	-0.008669	0	0	0	-0.13893	0.027712	0.057019	-0.10487	0.023386	0.17125	-0.15976	-0.083653	0.06442
13	0.1069	-0.076437	-0.014167	0.16559	-0.10694	-0.25483	0.20264	-0.085149	-0.24998	0.22589	-0.046816	-0.15316	-0.008669	-0.046816	0.031938	-0.008669	0	0	0	-0.13897	0.02762	0.057016	-0.1049	0.0233	0.17125	-0.15977	-0.083753	0.064411
14	0.11581	-0.076455	-0.014188	0.1656	-0.10695	-0.25482	0.2026	-0.085155	-0.24997	0.22585	-0.046816	-0.15316	-0.008669	-0.046816	0.031938	-0.008669	0	0	0	-0.13901	0.027533	0.057013	-0.10493	0.023219	0.17125	-0.15979	-0.083849	0.064402
15	0.12472	-0.076474	-0.014206	0.1656	-0.10696	-0.25482	0.20257	-0.085165	-0.24997	0.22582	-0.046816	-0.15316	-0.008669	-0.046816	0.031938	-0.008669	0	0	0	-0.13904	0.02745	0.057009	-0.10496	0.023144	0.17124	-0.15981	-0.08394	0.064394
16	0.13363	-0.076493	-0.014221	0.1656	-0.10697	-0.25481	0.20253	-0.085178	-0.24996	0.22578	-0.046816	-0.15316	-0.008669	-0.046816	0.031938	-0.008669	0	0	0	-0.13908	0.027371	0.057005	-0.10499	0.023074	0.17124	-0.15982	-0.084027	0.064386
17	0.14254	-0.076513	-0.014232	0.16561	-0.10699	-0.2548	0.2025	-0.085194	-0.24995	0.22575	-0.046816	-0.15316	-0.008669	-0.046816	0.031938	-0.008669	0	0	0	-0.13912	0.027296	0.057001	-0.10501	0.023009	0.17124	-0.15983	-0.08411	0.064378
18	0.15145	-0.076533	-0.014239	0.16561	-0.107	-0.25479	0.20247	-0.085213	-0.24994	0.22572	-0.046816	-0.15316	-0.008669	-0.046816	0.031938	-0.008669	0	0	0	-0.13915	0.027226	0.056996	-0.10504	0.02295	0.17123	-0.15985	-0.084187	0.064371
19	0.16036	-0.076554	-0.014244	0.16561	-0.10702	-0.25477	0.20243	-0.085234	-0.24992	0.22568	-0.046816	-0.15316	-0.008669	-0.046816	0.031938	-0.008669	0	0	0	-0.13918	0.027161	0.056991	-0.10507	0.022896	0.17123	-0.15986	-0.08426	0.064365
20	0.16927	-0.076575	-0.014245	0.16562	-0.10705	-0.25476	0.2024	-0.085259	-0.2499	0.22565	-0.046816	-0.15316	-0.008669	-0.046816	0.031938	-0.008669	0	0	0	-0.13921	0.0271	0.056985	-0.10509	0.022848	0.17122	-0.15987	-0.084328	0.064358
21	0.17817	-0.076597	-0.014243	0.16562	-0.10707	-0.25474	0.20237	-0.085286	-0.24988	0.22562	-0.046816	-0.15316	-0.008669	-0.046816	0.031938	-0.008669	0	0	0	-0.13924	0.027045	0.056979	-0.10511	0.022805	0.17122	-0.15988	-0.084391	0.064352
22	0.18708	-0.076619	-0.014239	0.16563	-0.1071	-0.25472	0.20234	-0.085316	-0.24986	0.2256	-0.046816	-0.15316	-0.008669	-0.046816	0.031938	-0.008669	0	0	0	-0.13926	0.026994	0.056973	-0.10513	0.022767	0.17121	-0.15989	-0.084448	0.064347
23	0.19599	-0.076641	-0.014231	0.16563	-0.10713	-0.25469	0.20232	-0.085349	-0.24984	0.22557	-0.046816	-0.15316	-0.008669	-0.046816	0.031938	-0.008669	0	0	0	-0.13929	0.026948	0.056967	-0.10515	0.022735	0.17121	-0.1599	-0.0845	0.064342
24	0.2049	-0.076664	-0.01422	0.16563	-0.10716	-0.25467	0.20229	-0.085384	-0.24981	0.22554	-0.046816	-0.15316	-0.008669	-0.046816	0.031938	-0.008669	0	0	0	-0.13931	0.026907	0.05696	-0.10517	0.022709	0.1712	-0.15991	-0.084547	0.064337
25	0.21381	-0.076687	-0.014207	0.16564	-0.1072	-0.25464	0.20226	-0.085422	-0.24978	0.22552	-0.046816	-0.15316	-0.008669	-0.046816	0.031938	-0.008669	0	0	0	-0.13933	0.026872	0.056953	-0.10519	0.022688	0.1712	-0.15992	-0.084588	0.064332
26	0.22272	-0.076711	-0.014191	0.16564	-0.10724	-0.25461	0.20224	-0.085462	-0.24975	0.2255	-0.046816	-0.15316	-0.008669	-0.046816	0.031938	-0.008669	0	0	0	-0.13935	0.026842	0.056946	-0.10521	0.022672	0.17119	-0.15993	-0.084624	0.064328
27	0.23163	-0.076734	-0.014173	0.16564	-0.10728	-0.25458	0.20222	-0.085505	-0.24972	0.22547	-0.046816	-0.15316	-0.008669	-0.046816	0.031938	-0.008669	0	0	0	-0.13937	0.026817	0.056938	-0.10523	0.022662	0.17119	-0.15993	-0.084653	0.064324
28	0.24053	-0.076758	-0.014151	0.16565	-0.10732	-0.25455	0.20219	-0.08555	-0.24969	0.22545	-0.046816	-0.15316	-0.008669	-0.046816	0.031938	-0.008669	0	0	0	-0.13938	0.026798	0.056931	-0.10524	0.022657	0.17118	-0.15994	-0.084676	0.064321
29	0.24944	-0.076783	-0.014128	0.16565	-0.10736	-0.25452	0.20217	-0.085597	-0.24966	0.22543	-0.046816	-0.15316	-0.008669	-0.046816	0.031938	-0.008669	0	0	0	-0.13939	0.026785	0.056923	-0.10526	0.022658	0.17118	-0.15994	-0.084694	0.064317
30	0.25835	-0.076807	-0.014102	0.16566	-0.10741	-0.25449	0.20215	-0.085646	-0.24962	0.22541	-0.046816	-0.15316	-0.008669	-0.046816	0.031938	-0.008669	0	0	0	-0.1394	0.026777	0.056915	-0.10527	0.022665	0.17117	-0.15995	-0.084705	0.064314
31	0.26726	-0.076832	-0.014074	0.16566	-0.10746	-0.25445	0.20213	-0.085698	-0.24959	0.2254	-0.046816	-0.15316	-0.008669	-0.046816	0.031938	-0.008669	0	0	0	-0.13941	0.026776	0.056906	-0.10528	0.022677	0.17117	-0.15995	-0.084709	0.064311
32	0.27617	-0.076857	-0.014043	0.16566	-0.10751	-0.25442	0.20211	-0.085751	-0.24955	0.22538	-0.046816	-0.15316	-0.008669	-0.046816	0.031938	-0.008669	0	0	0	-0.13942	0.02678	0.056898	-0.10529	0.022695	0.17116	-0.15995	-0.084708	0.064308
33	0.28508	-0.076882	-0.014011	0.16567	-0.10756	-0.25438	0.20209	-0.085806	-0.24951	0.22536	-0.046816	-0.15316	-0.008669	-0.046816	0.031938	-0.008669	0	0	0	-0.13942	0.02679	0.056889	-0.1053	0.022718	0.17116	-0.15995	-0.084699	0.064306
34	0.29399	-0.076907	-0.013976	0.16567	-0.10761	-0.25434	0.20207	-0.085863	-0.24947	0.22535	-0.046816	-0.15316	-0.008669	-0.046816	0.031938	-0.008669	0	0	0	-0.13942	0.026807	0.056881	-0.10531	0.022747	0.17115	-0.15995	-0.084684	0.064304
35	0.3029	-0.076932	-0.013939	0.16568	-0.10767	-0.2543	0.20206	-0.085922	-0.24943	0.22533	-0.046816	-0.15316	-0.008669	-0.046816	0.031938	-0.008669	0	0	0	-0.13942	0.02683	0.056872	-0.10532	0.022782	0.17115	-0.15995	-0.084661	0.064302
36	0.3118	-0.076958	-0.013901	0.16568	-0.10773	-0.25426	0.20204	-0.085983	-0.24939	0.22532	-0.046816	-0.15316	-0.008669	-0.046816	0.031938	-0.008669	0	0	0	-0.13942	0.026859	0.056863	-0.10532	0.022822	0.17114	-0.15995	-0.084632	0.0643
37	0.32071	-0.076983	-0.01386	0.16568	-0.10779	-0.25422	0.20203	-0.086046	-0.24935	0.22531	-0.046816	-0.15316	-0.008669	-0.046816	0.031938	-0.008669	0	0	0	-0.13941	0.026895	0.056854	-0.10533	0.022868	0.17114	-0.15995	-0.084596	0.064298
38	0.32962	-0.077009	-0.013818	0.16569	-0.10785	-0.25418	0.20201	-0.08611	-0.2493	0.2253	-0.046816	-0.15316	-0.008669	-0.046816	0.031938	-0.008669	0	0	0	-0.13941	0.026937	0.056845	-0.10533	0.02292	0.17113	-0.15995	-0.084552	0.064296
